<?xml version="1.0" encoding="UTF-8"?>
<svg width="40px" height="35px" viewBox="0 0 40 35" version="1.1" xmlns="http://www.w3.org/2000/svg" xmlns:xlink="http://www.w3.org/1999/xlink">
    <!-- Generator: Sketch 41.1 (35376) - http://www.bohemiancoding.com/sketch -->
    <title>switch-btn</title>
    <desc>Created with Sketch.</desc>
    <defs></defs>
    <g id="Welcome" stroke="none" stroke-width="1" fill="none" fill-rule="evenodd">
        <g id="Desktop-HD" transform="translate(-650.000000, -177.000000)" fill="#FFFFFF">
            <g id="Rankings" transform="translate(-8.000000, -6.000000)">
                <g id="Bar" transform="translate(258.000000, 161.000000)">
                    <g id="switch--btn" transform="translate(400.000000, 22.000000)">
                        <path d="M39.4577898,15.1399879 L32.8779196,21.8232043 C32.5197796,22.1870593 32.0306709,22.3918468 31.5201308,22.3918468 C31.0095908,22.3918468 30.5204821,22.1870593 30.1623421,21.8232043 L23.5824719,15.1399879 C22.8442844,14.3903704 22.8538094,13.1845054 23.6034269,12.4458416 C24.3530444,11.7076541 25.5589094,11.7171791 26.2975732,12.4672728 L29.9756521,16.2025017 C29.4984495,9.288304 23.8234544,3.8100001 16.9111617,3.8100001 C9.68740151,3.8100001 3.8100001,9.79217651 3.8100001,17.1450005 C3.8100001,24.4983007 9.68740151,30.4800008 16.9111617,30.4800008 C19.5700655,30.4800008 22.1289568,29.6751383 24.3101819,28.1516145 C25.1731469,27.5496345 26.3609145,27.7606132 26.9628945,28.623102 C27.5653507,29.4855908 27.3538957,30.6733583 26.491407,31.2758146 C23.6672444,33.2474896 20.3544493,34.2900009 16.9111617,34.2900009 C7.5866627,34.2900009 -8.52651283e-14,26.5990395 -8.52651283e-14,17.1450005 C-8.52651283e-14,7.69143771 7.5866627,0 16.9111617,0 C25.6927357,0 32.9298309,6.82228143 33.7432659,15.5133679 L36.7426885,12.4672728 C37.4813523,11.7171791 38.6876935,11.7081303 39.4368348,12.4458416 C40.1864523,13.1845054 40.1959773,14.3903704 39.4577898,15.1399879" id="switch-btn"></path>
                    </g>
                </g>
            </g>
        </g>
    </g>
</svg>